HIERARCHY
ROOT hip
{
  OFFSET 0 0 0
  CHANNELS 6 Xposition Yposition Zposition Zrotation Yrotation Xrotation
  JOINT abdomen
  {
    OFFSET 0 20.6881 -0.73152
    CHANNELS 3 Zrotation Xrotation Yrotation
    JOINT chest
    {
      OFFSET 0 11.7043 -0.48768
      CHANNELS 3 Zrotation Xrotation Yrotation
      JOINT neck
      {
        OFFSET 0 22.1894 -2.19456
        CHANNELS 3 Zrotation Xrotation Yrotation
        JOINT head
        {
          OFFSET -0.24384 7.07133 1.2192
          CHANNELS 3 Zrotation Xrotation Yrotation
          JOINT leftEye
          {
            OFFSET 4.14528 8.04674 8.04672
            CHANNELS 3 Zrotation Xrotation Yrotation
            End Site
            {
              OFFSET 1 0 0
            }
          }
          JOINT rightEye
          {
            OFFSET -3.6576 8.04674 8.04672
            CHANNELS 3 Zrotation Xrotation Yrotation
            End Site
            {
              OFFSET 1 0 0
            }
          }
        }
      }
      JOINT rCollar
      {
        OFFSET -2.68224 19.2634 -4.8768
        CHANNELS 3 Zrotation Xrotation Yrotation
        JOINT rShldr
        {
          OFFSET -8.77824 -1.95073 1.46304
          CHANNELS 3 Zrotation Xrotation Yrotation
          JOINT rForeArm
          {
            OFFSET -28.1742 -1.7115 0.48768
            CHANNELS 3 Zrotation Xrotation Yrotation
            JOINT rHand
            {
              OFFSET -22.5879 0.773209 7.07136
              CHANNELS 3 Zrotation Xrotation Yrotation
              JOINT rThumb1
              {
                OFFSET -1.2192 -0.487915 3.41376
                CHANNELS 3 Zrotation Xrotation Yrotation
                JOINT rThumb2
                {
                  OFFSET -3.37035 -0.52449 3.41376
                  CHANNELS 3 Zrotation Xrotation Yrotation
                  End Site
                  {
                    OFFSET -1.78271 -1.18214 1.43049
                  }
                }
              }
              JOINT rIndex1
              {
                OFFSET -7.75947 0.938293 5.60832
                CHANNELS 3 Zrotation Xrotation Yrotation
                JOINT rIndex2
                {
                  OFFSET -2.54057 -0.884171 1.56538
                  CHANNELS 3 Zrotation Xrotation Yrotation
                  End Site
                  {
                    OFFSET -1.62519 -0.234802 1.16502
                  }
                }
              }
              JOINT rMid1
              {
                OFFSET -8.24714 1.18213 3.41376
                CHANNELS 3 Zrotation Xrotation Yrotation
                JOINT rMid2
                {
                  OFFSET -3.10165 -0.590103 1.0647
                  CHANNELS 3 Zrotation Xrotation Yrotation
                  End Site
                  {
                    OFFSET -2.48547 -0.328903 0.83742
                  }
                }
              }
              JOINT rRing1
              {
                OFFSET -8.82822 0.546677 1.51678
                CHANNELS 3 Zrotation Xrotation Yrotation
                JOINT rRing2
                {
                  OFFSET -2.60934 -0.819778 -0.0198488
                  CHANNELS 3 Zrotation Xrotation Yrotation
                  End Site
                  {
                    OFFSET -2.33842 -0.294052 0.168128
                  }
                }
              }
              JOINT rPinky1
              {
                OFFSET -8.27202 -0.0477905 -0.4584
                CHANNELS 3 Zrotation Xrotation Yrotation
                JOINT rPinky2
                {
                  OFFSET -1.82734 -0.647385 -0.700984
                  CHANNELS 3 Zrotation Xrotation Yrotation
                  End Site
                  {
                    OFFSET -1.69225 -0.51767 -0.607171
                  }
                }
              }
            }
          }
        }
      }
      JOINT lCollar
      {
        OFFSET 2.68224 19.2634 -4.8768
        CHANNELS 3 Zrotation Xrotation Yrotation
        JOINT lShldr
        {
          OFFSET 8.77824 -1.95073 1.46304
          CHANNELS 3 Zrotation Xrotation Yrotation
          JOINT lForeArm
          {
            OFFSET 28.1742 -1.7115 0.48768
            CHANNELS 3 Zrotation Xrotation Yrotation
            JOINT lHand
            {
              OFFSET 22.5879 0.773209 7.07136
              CHANNELS 3 Zrotation Xrotation Yrotation
              JOINT lThumb1
              {
                OFFSET 1.2192 -0.487915 3.41376
                CHANNELS 3 Zrotation Xrotation Yrotation
                JOINT lThumb2
                {
                  OFFSET 3.37035 -0.52449 3.41376
                  CHANNELS 3 Zrotation Xrotation Yrotation
                  End Site
                  {
                    OFFSET 1.78271 -1.18214 1.43049
                  }
                }
              }
              JOINT lIndex1
              {
                OFFSET 7.75947 0.938293 5.60832
                CHANNELS 3 Zrotation Xrotation Yrotation
                JOINT lIndex2
                {
                  OFFSET 2.54057 -0.884171 1.56538
                  CHANNELS 3 Zrotation Xrotation Yrotation
                  End Site
                  {
                    OFFSET 1.62519 -0.234802 1.16502
                  }
                }
              }
              JOINT lMid1
              {
                OFFSET 8.24714 1.18213 3.41376
                CHANNELS 3 Zrotation Xrotation Yrotation
                JOINT lMid2
                {
                  OFFSET 3.10165 -0.590103 1.0647
                  CHANNELS 3 Zrotation Xrotation Yrotation
                  End Site
                  {
                    OFFSET 2.48547 -0.328903 0.83742
                  }
                }
              }
              JOINT lRing1
              {
                OFFSET 8.82822 0.546677 1.51678
                CHANNELS 3 Zrotation Xrotation Yrotation
                JOINT lRing2
                {
                  OFFSET 2.60934 -0.819778 -0.0198488
                  CHANNELS 3 Zrotation Xrotation Yrotation
                  End Site
                  {
                    OFFSET 2.33842 -0.294052 0.168128
                  }
                }
              }
              JOINT lPinky1
              {
                OFFSET 8.27202 -0.0477905 -0.4584
                CHANNELS 3 Zrotation Xrotation Yrotation
                JOINT lPinky2
                {
                  OFFSET 1.82734 -0.647385 -0.700984
                  CHANNELS 3 Zrotation Xrotation Yrotation
                  End Site
                  {
                    OFFSET 1.69225 -0.51767 -0.607171
                  }
                }
              }
            }
          }
        }
      }
    }
  }
  JOINT rButtock
  {
    OFFSET -8.77824 4.35084 1.2192
    CHANNELS 3 Zrotation Xrotation Yrotation
    JOINT rThigh
    {
      OFFSET 0 -1.70687 -2.19456
      CHANNELS 3 Zrotation Xrotation Yrotation
      JOINT rShin
      {
        OFFSET 0 -36.8199 0.73152
        CHANNELS 3 Zrotation Xrotation Yrotation
        JOINT rFoot
        {
          OFFSET 0.73152 -45.1104 -5.12064
          CHANNELS 3 Zrotation Xrotation Yrotation
          End Site
          {
            OFFSET -1.1221 -3.69964 12.103
          }
        }
      }
    }
  }
  JOINT lButtock
  {
    OFFSET 8.77824 4.35084 1.2192
    CHANNELS 3 Zrotation Xrotation Yrotation
    JOINT lThigh
    {
      OFFSET 0 -1.70687 -2.19456
      CHANNELS 3 Zrotation Xrotation Yrotation
      JOINT lShin
      {
        OFFSET 0 -36.8199 0.73152
        CHANNELS 3 Zrotation Xrotation Yrotation
        JOINT lFoot
        {
          OFFSET -0.73152 -45.1104 -5.12064
          CHANNELS 3 Zrotation Xrotation Yrotation
          End Site
          {
            OFFSET 1.1221 -3.69964 12.103
          }
        }
      }
    }
  }
}
MOTION
Frames:	9
Frame Time:	0.00833333
159.358 85.3326 -4.48163 0.0 0.0 0.0 1.16874 -0.0049388 0.0322835 0.322753 -0.00472401 0.0559149 -2.31313e-14 0.0 2.60905e-16 -6.93572e-14 3.18055e-15 8.19987e-16 -0.0 0.0 0.0 -0.0 0.0 0.0 -1.14315e-14 5.20257e-17 2.98177e-16 -2.40253e-13 1.1865e-15 3.18055e-15 -4.16424e-12 1.28077e-12 8.26944e-14 -4.76481e-11 -1.04983e-12 4.51639e-13 -1.12391e-10 5.00338e-13 1.18635e-12 -1.94104e-10 8.6193e-13 2.05861e-12 -1.12385e-10 5.03323e-13 1.18317e-12 7.73091 5.47488 0.417314 -1.12391e-10 5.00142e-13 1.19271e-12 2.90554 0.965183 0.102902 -1.12381e-10 5.00739e-13 1.1935e-12 10.2786 0.731801 0.0259123 -1.12397e-10 5.02925e-13 1.20861e-12 2.22167 -0.733487 -0.20892 -1.15289e-14 5.31904e-17 0.0 -2.43734e-13 1.19271e-15 1.19271e-15 -4.16588e-12 -1.20543e-12 9.54166e-14 -4.76352e-11 1.4469e-12 4.58e-13 -1.12369e-10 5.21965e-13 1.19271e-12 -1.9405e-10 8.96916e-13 2.06816e-12 -1.12373e-10 5.22804e-13 1.19907e-12 -7.73091 5.47488 -0.417314 -1.12368e-10 5.22009e-13 1.19589e-12 -2.90554 0.965183 -0.102902 -1.12376e-10 5.22307e-13 1.19271e-12 -10.2786 0.731801 -0.0259123 -1.12363e-10 5.23996e-13 1.17999e-12 -2.22167 -0.733487 0.20892 -2.03217e-16 0.0 -3.88251e-19 1.3559 -5.8465 -0.12272 0.00113156 5.03399 0.0414002 -0.480907 0.811096 0.0710946 2.03217e-16 0.0 3.88251e-19 0.426468 -1.91991 0.00997148 0.00898924 -2.0786 0.0740812 0.459238 3.99698 -0.132481
155.727 83.4216 -8.45331 6.251 -70.8776 2.2166 0.497662 -3.06209 3.33768 0.706258 -0.694593 1.01527 -1.90135 3.8251 0.861495 3.20204 -6.78859 2.47937 -0.0 0.0 0.0 -0.0 0.0 0.0 4.75414e-15 -3.12073e-14 8.78321e-14 24.4241 -0.280349 -0.895945 -4.1779 -1.89004 6.53444 0.00213932 1.02667 0.144206 -6.43353e-10 -1.79555e-10 7.99998e-10 -1.10926e-09 -3.11587e-10 1.38763e-09 -6.43346e-10 -1.79553e-10 7.99994e-10 7.73091 5.47488 0.417314 -6.43353e-10 -1.79556e-10 8.00004e-10 2.90554 0.965183 0.102902 -6.43343e-10 -1.79556e-10 8.00005e-10 10.2786 0.731801 0.0259123 -6.43357e-10 -1.79555e-10 8.00017e-10 2.22167 -0.733487 -0.20892 4.68612e-15 -3.1209e-14 8.75476e-14 -24.4498 -0.67997 3.04403 5.37892 -2.72989 -8.06777 -0.190278 9.88329 -1.31946 -3.82711e-10 -7.46157e-10 -7.47932e-10 -6.79587e-10 -1.28083e-09 -1.28371e-09 -3.82715e-10 -7.46157e-10 -7.47925e-10 -7.73091 5.47488 -0.417314 -3.8271e-10 -7.46157e-10 -7.47929e-10 -2.90554 0.965183 -0.102902 -3.82718e-10 -7.46157e-10 -7.47931e-10 -10.2786 0.731801 -0.0259123 -3.82706e-10 -7.46155e-10 -7.47943e-10 -2.22167 -0.733487 0.20892 -2.03217e-16 0.0 -3.88251e-19 0.673242 -8.90889 -1.36276 0.0501645 10.9228 0.20828 -1.54885 -6.23192 -6.80181 2.03217e-16 0.0 3.88251e-19 0.337798 -7.76281 -2.0417 0.000848016 7.0853 -0.0646121 0.249288 -1.86307 -1.68571
155.536 83.4557 -8.55069 6.1501 -71.2727 1.874 0.183129 -6.28187 6.88231 1.14829 -1.40743 2.0351 -4.01387 7.80319 1.86131 7.17247 -13.8575 5.35544 -0.0 0.0 0.0 -0.0 0.0 0.0 2.31982e-14 -6.60702e-14 1.89227e-13 50.21 -0.598552 -1.84954 -8.12877 -3.80592 13.4645 -0.00121896 2.10769 0.296202 -1.28985e-09 -4.19113e-10 1.69608e-09 -2.22386e-09 -7.27164e-10 2.94222e-09 -1.28984e-09 -4.19112e-10 1.69607e-09 7.73091 5.47488 0.417314 -1.28985e-09 -4.19115e-10 1.69609e-09 2.90554 0.965183 0.102902 -1.28984e-09 -4.19115e-10 1.69609e-09 10.2786 0.731801 0.0259123 -1.28985e-09 -4.19116e-10 1.6961e-09 2.22167 -0.733487 -0.20892 2.31636e-14 -6.6075e-14 1.88957e-13 -50.2244 -1.44797 6.2375 10.2344 -5.43244 -16.6496 0.141244 20.5347 -2.88507 -7.42762e-10 -1.53082e-09 -1.58005e-09 -1.32211e-09 -2.62573e-09 -2.7109e-09 -7.42767e-10 -1.53082e-09 -1.58004e-09 -7.73091 5.47488 -0.417314 -7.42762e-10 -1.53082e-09 -1.58004e-09 -2.90554 0.965183 -0.102902 -7.42769e-10 -1.53082e-09 -1.58004e-09 -10.2786 0.731801 -0.0259123 -7.42758e-10 -1.53082e-09 -1.58005e-09 -2.22167 -0.733487 0.20892 -2.03217e-16 0.0 -3.88251e-19 -0.198589 -12.1696 -2.70362 0.0630156 17.154 0.395023 -4.5448 -13.3601 -14.3843 2.03217e-16 0.0 3.88251e-19 -0.227225 -13.9438 -4.314 0.0420336 16.774 -0.219491 -0.320583 -8.04247 -3.3594
155.362 83.4866 -8.66722 5.9924 -71.6851 1.6255 0.219115 -9.05298 10.0608 1.54258 -2.07194 2.93566 -6.05499 11.4648 2.63127 11.4612 -20.2081 7.87339 -0.0 0.0 0.0 -0.0 0.0 0.0 3.71255e-14 -9.37258e-14 2.629e-13 73.2461 -0.840223 -2.68809 -11.2636 -5.37573 19.6827 -0.00910505 3.07995 0.433175 -1.70528e-09 -5.39666e-10 2.39762e-09 -2.93956e-09 -9.36486e-10 4.15877e-09 -1.70527e-09 -5.39666e-10 2.39761e-09 7.73091 5.47488 0.417314 -1.70528e-09 -5.39668e-10 2.39763e-09 2.90554 0.965183 0.102902 -1.70527e-09 -5.39669e-10 2.39763e-09 10.2786 0.731801 0.0259123 -1.70528e-09 -5.39672e-10 2.39763e-09 2.22167 -0.733487 -0.20892 3.71161e-14 -9.37333e-14 2.62643e-13 -73.1337 -2.01689 9.13716 13.89 -7.54153 -24.4003 0.967288 29.5821 -4.48526 -9.23396e-10 -2.23951e-09 -2.24618e-09 -1.65066e-09 -3.84429e-09 -3.85526e-09 -9.234e-10 -2.23952e-09 -2.24617e-09 -7.73091 5.47488 -0.417314 -9.23395e-10 -2.23952e-09 -2.24618e-09 -2.90554 0.965183 -0.102902 -9.23401e-10 -2.23952e-09 -2.24618e-09 -10.2786 0.731801 -0.0259123 -9.23392e-10 -2.23951e-09 -2.24619e-09 -2.22167 -0.733487 0.20892 -2.03217e-16 0.0 -3.88251e-19 -1.1027 -15.0073 -3.92899 0.0372229 22.6997 0.575627 -8.87594 -19.1117 -21.6764 2.03217e-16 0.0 3.88251e-19 -1.15793 -19.349 -6.45487 0.127768 25.4126 -0.376889 -1.14376 -13.5373 -4.92735
155.205 83.4996 -8.76906 5.9214 -72.0676 1.2624 0.356777 -10.8249 12.2118 1.77049 -2.61781 3.53657 -7.62392 14.3487 2.77544 15.0652 -24.9478 9.04714 -0.0 0.0 0.0 -0.0 0.0 0.0 3.97605e-14 -1.03363e-13 2.67266e-13 89.4294 -0.891514 -3.2387 -13.2443 -6.36055 24.0456 -0.0175599 3.78039 0.53208 -1.54302e-09 -3.62707e-10 2.61281e-09 -2.65801e-09 -6.3017e-10 4.53023e-09 -1.54302e-09 -3.62707e-10 2.6128e-09 7.73091 5.47488 0.417314 -1.54302e-09 -3.6271e-10 2.61281e-09 2.90554 0.965183 0.102902 -1.54302e-09 -3.6271e-10 2.61281e-09 10.2786 0.731801 0.0259123 -1.54302e-09 -3.62714e-10 2.61282e-09 2.22167 -0.733487 -0.20892 3.97561e-14 -1.03372e-13 2.67018e-13 -89.0584 -2.11363 11.2959 16.1009 -8.78135 -29.886 1.7454 34.695 -5.58353 -6.55484e-10 -2.75827e-09 -2.49738e-09 -1.19427e-09 -4.74705e-09 -4.2925e-09 -6.55487e-10 -2.75828e-09 -2.49737e-09 -7.73091 5.47488 -0.417314 -6.55483e-10 -2.75828e-09 -2.49737e-09 -2.90554 0.965183 -0.102902 -6.55489e-10 -2.75828e-09 -2.49737e-09 -10.2786 0.731801 -0.0259123 -6.5548e-10 -2.75827e-09 -2.49738e-09 -2.22167 -0.733487 0.20892 -2.03217e-16 0.0 -3.88251e-19 -1.78543 -16.8113 -4.79061 -0.00361523 26.5322 0.711132 -12.8083 -22.5883 -27.1311 2.03217e-16 0.0 3.88251e-19 -2.02114 -22.9123 -7.96988 0.220733 31.4262 -0.505421 -1.90739 -17.3656 -6.08821
155.061 83.5138 -8.83203 6.0995 -72.3932 0.6099 0.283914 -11.2492 12.8376 1.73319 -3.02032 3.71432 -8.35873 16.2137 1.94541 16.9123 -27.6302 7.8731 -0.0 0.0 0.0 -0.0 0.0 0.0 2.40461e-14 -7.82e-14 1.59472e-13 96.044 -0.681409 -3.38417 -13.9734 -6.71445 25.7545 -0.0224054 4.13519 0.582251 -3.80131e-10 3.27531e-10 2.00066e-09 -6.48922e-10 5.65814e-10 3.46401e-09 -3.80124e-10 3.27531e-10 2.00064e-09 7.73091 5.47488 0.417314 -3.80129e-10 3.27528e-10 2.00066e-09 2.90554 0.965183 0.102902 -3.80124e-10 3.27529e-10 2.00066e-09 10.2786 0.731801 0.0259123 -3.8013e-10 3.27526e-10 2.00066e-09 2.22167 -0.733487 -0.20892 2.40121e-14 -7.82102e-14 1.59226e-13 -95.28 -1.4804 12.4463 16.9263 -9.23214 -32.1191 1.73922 34.1381 -5.48585 4.25314e-10 -2.99737e-09 -2.0458e-09 6.82665e-10 -5.18882e-09 -3.53291e-09 4.25311e-10 -2.99737e-09 -2.0458e-09 -7.73091 5.47488 -0.417314 4.25315e-10 -2.99737e-09 -2.0458e-09 -2.90554 0.965183 -0.102902 4.25309e-10 -2.99737e-09 -2.0458e-09 -10.2786 0.731801 -0.0259123 4.25319e-10 -2.99737e-09 -2.04581e-09 -2.22167 -0.733487 0.20892 -2.03217e-16 0.0 -3.88251e-19 -2.01445 -17.1323 -5.09979 -0.0239039 27.955 0.762547 -14.4937 -23.7293 -29.3311 2.03217e-16 0.0 3.88251e-19 -2.30548 -23.9278 -8.38586 0.26601 33.7629 -0.561243 -2.26897 -18.8924 -6.59483
154.815 83.5333 -8.95386 6.1212 -72.9651 -0.3967 -0.00138225 -10.7316 12.3587 1.50013 -3.31996 3.58954 -8.44136 17.3406 0.403319 17.2897 -28.8151 4.90246 -0.0 0.0 0.0 -0.0 0.0 0.0 -4.65389e-15 -2.86356e-14 -2.7715e-14 95.8221 -0.284348 -3.24048 -13.8899 -6.67311 25.5571 -0.0234714 4.24145 0.597268 1.48837e-09 1.37979e-09 8.04518e-10 2.57834e-09 2.38928e-09 1.38299e-09 1.48837e-09 1.37979e-09 8.04506e-10 7.73091 5.47488 0.417314 1.48837e-09 1.37979e-09 8.04519e-10 2.90554 0.965183 0.102902 1.48837e-09 1.37979e-09 8.0452e-10 10.2786 0.731801 0.0259123 1.48837e-09 1.37979e-09 8.04525e-10 2.22167 -0.733487 -0.20892 -4.74204e-15 -2.86461e-14 -2.79634e-14 -94.5888 -0.335196 12.8785 16.8968 -9.24097 -32.0053 1.19859 29.5399 -4.55504 2.07794e-09 -3.03735e-09 -1.09806e-09 3.55896e-09 -5.30221e-09 -1.92827e-09 2.07794e-09 -3.03736e-09 -1.09805e-09 -7.73091 5.47488 -0.417314 2.07794e-09 -3.03735e-09 -1.09806e-09 -2.90554 0.965183 -0.102902 2.07793e-09 -3.03735e-09 -1.09806e-09 -10.2786 0.731801 -0.0259123 2.07795e-09 -3.03735e-09 -1.09807e-09 -2.22167 -0.733487 0.20892 -2.03217e-16 0.0 -3.88251e-19 -1.89276 -16.4 -5.00509 -0.0192043 27.6574 0.747883 -14.1928 -23.4539 -29.0307 2.03217e-16 0.0 3.88251e-19 -2.08126 -23.1416 -7.96806 0.260682 33.4735 -0.554132 -2.25915 -18.786 -6.59549
154.716 83.5322 -8.97036 6.0405 -72.9632 -0.5104 -0.331702 -9.88426 11.4635 1.20375 -3.54469 3.34783 -8.28 18.0589 -1.33855 17.138 -29.195 1.39259 -0.0 0.0 0.0 -0.0 0.0 0.0 -3.44838e-14 1.53703e-14 -2.22451e-13 92.8351 0.195001 -2.98432 -13.4904 -6.48067 24.616 -0.022198 4.19257 0.590322 3.33209e-09 2.42204e-09 -3.90902e-10 5.76266e-09 4.19531e-09 -6.96667e-10 3.33209e-09 2.42204e-09 -3.90915e-10 7.73091 5.47488 0.417314 3.33209e-09 2.42203e-09 -3.90902e-10 2.90554 0.965183 0.102902 3.33209e-09 2.42204e-09 -3.90901e-10 10.2786 0.731801 0.0259123 3.33208e-09 2.42204e-09 -3.90896e-10 2.22167 -0.733487 -0.20892 -3.4626e-14 1.53602e-14 -2.22702e-13 -91.1342 0.876441 12.9772 16.5159 -9.06378 -30.9222 0.707198 23.6546 -3.51148 3.66342e-09 -3.01972e-09 -1.46797e-10 6.32039e-09 -5.31442e-09 -3.16658e-10 3.66342e-09 -3.01972e-09 -1.46791e-10 -7.73091 5.47488 -0.417314 3.66342e-09 -3.01972e-09 -1.46802e-10 -2.90554 0.965183 -0.102902 3.66341e-09 -3.01972e-09 -1.46803e-10 -10.2786 0.731801 -0.0259123 3.66343e-09 -3.01972e-09 -1.46815e-10 -2.22167 -0.733487 0.20892 -2.03217e-16 0.0 -3.88251e-19 -1.64803 -15.3269 -4.75009 -0.00551724 26.6904 0.707477 -13.0986 -22.6192 -27.7041 2.03217e-16 0.0 3.88251e-19 -1.69793 -21.6904 -7.25436 0.23511 32.1374 -0.522699 -2.07838 -18.0311 -6.34132
154.633 83.5346 -8.96887 6.3414 -73.0427 -0.9544 -0.573907 -9.32918 10.8304 0.980632 -3.72226 3.17507 -8.29176 18.7126 -2.76327 17.358 -29.5705 -1.39992 -0.0 0.0 0.0 -0.0 0.0 0.0 -5.35878e-14 2.3858e-14 -3.52892e-13 91.16 0.651652 -2.79217 -13.2688 -6.37923 24.0941 -0.020479 4.08192 0.574658 4.42063e-09 3.08224e-09 -1.0009e-09 7.64295e-09 5.33897e-09 -1.75882e-09 4.42063e-09 3.08224e-09 -1.00091e-09 7.73091 5.47488 0.417314 4.42063e-09 3.08224e-09 -1.0009e-09 2.90554 0.965183 0.102902 4.42064e-09 3.08224e-09 -1.0009e-09 10.2786 0.731801 0.0259123 4.42063e-09 3.08224e-09 -1.0009e-09 2.22167 -0.733487 -0.20892 -5.37594e-14 2.38489e-14 -3.53141e-13 -89.0805 1.70631 13.119 16.2725 -8.9429 -30.25 0.478084 19.2677 -2.81594 4.54278e-09 -3.08594e-09 3.15304e-10 7.85276e-09 -5.45266e-09 4.6388e-10 4.54278e-09 -3.08594e-09 3.15311e-10 -7.73091 5.47488 -0.417314 4.54278e-09 -3.08594e-09 3.15298e-10 -2.90554 0.965183 -0.102902 4.54278e-09 -3.08594e-09 3.15297e-10 -10.2786 0.731801 -0.0259123 4.54279e-09 -3.08594e-09 3.15285e-10 -2.22167 -0.733487 0.20892 -2.03217e-16 0.0 -3.88251e-19 -1.4953 -14.6265 -4.57214 0.00172876 26.1051 0.681341 -12.4033 -22.0782 -26.8222 2.03217e-16 0.0 3.88251e-19 -1.45661 -20.7203 -6.75741 0.22022 31.3342 -0.50594 -1.93731 -17.6107 -6.08759
